<?xml version="1.0" encoding="iso-8859-1"?>
<!-- Generator: Adobe Illustrator 19.0.0, SVG Export Plug-In . SVG Version: 6.00 Build 0)  -->
<svg version="1.1" id="Capa_1" xmlns="http://www.w3.org/2000/svg" xmlns:xlink="http://www.w3.org/1999/xlink" x="0px" y="0px"
	 viewBox="0 0 377.503 377.503" style="enable-background:new 0 0 377.503 377.503;width: 120px;height: 120px;fill: red;" xml:space="preserve">
<g>
	<g>
		<g>
			<path d="M213.339,363.32h-24c-3.6,0-6.8,2.8-6.8,6.8c0,3.6,2.8,6.8,6.8,6.8h24c3.6,0,6.8-2.8,6.8-6.8
				C220.139,366.52,217.339,363.32,213.339,363.32z"/>
			<path d="M248.539,363.32h-14.4c-3.6,0-6.8,2.8-6.8,6.8c0,3.6,2.8,6.8,6.8,6.8h14.4c3.6,0,6.8-2.8,6.8-6.8
				C255.339,366.52,252.539,363.32,248.539,363.32z"/>
			<path d="M294.939,0.52c-4-1.2-8-0.4-12.8,3.2c-7.6,5.2-19.2,19.2-33.2,38.8l-115.6,162c-14,2.8-26.8,10-36.4,21.6
				c-17.2,20.8-22,44.8-20,67.6c2.4,33.6,19.6,64.8,30.8,77.2c5.2,6,8.8,7.6,12.8,6l47.2-0.8c3.6,0,6.8-2.8,6.8-6.8
				c0-3.6-2.8-6.8-6.8-6.8l-37.2,0.4c3.2-6,9.2-13.6,21.2-21.6c16.8-11.2,36.4-24,47.6-43.6c8.8-14.8,10.4-32,6.4-47.6
				c-0.4-1.6-1.2-3.2-1.6-4.8l80.8-184.8c10.4-24,15.2-39.6,16-47.6C301.339,6.52,299.339,2.12,294.939,0.52z M188.139,291.72
				c-9.6,16.8-27.6,28.4-43.2,38.8c-17.6,11.2-24,22.8-27.6,30c-10-11.6-23.6-38.4-26-67.2c-1.6-19.6,2.4-40.4,16.8-57.6
				c7.6-9.2,17.5-16,28.8-16.8c28.4-2,51.2,19.7,56,35.6C196.539,266.42,194.939,280.12,188.139,291.72z M194.939,228.52
				c-17.9-21.6-44-24.4-44-24.4l45.6-64l30.4,18L194.939,228.52z M272.139,55.72l-39.2,89.6l-28.4-16.4l56-77.6
				c10.4-14.4,18.8-25.2,25.2-31.6C283.739,27.32,279.339,39.32,272.139,55.72z"/>
		</g>
	</g>
</g>
<g>
</g>
<g>
</g>
<g>
</g>
<g>
</g>
<g>
</g>
<g>
</g>
<g>
</g>
<g>
</g>
<g>
</g>
<g>
</g>
<g>
</g>
<g>
</g>
<g>
</g>
<g>
</g>
<g>
</g>
</svg>
