<svg id="Capa_1" enable-background="new 0 0 497 497" height="512" viewBox="0 0 497 497" width="512" xmlns="http://www.w3.org/2000/svg"><path d="m437 248.5c0-137.243-84.394-248.5-188.5-248.5 137.243 0 248.5 111.257 248.5 248.5s-111.257 248.5-248.5 248.5c104.106 0 188.5-111.257 188.5-248.5z" fill="#fd805e"/><path d="m248.5 0c120.674 0 218.5 111.257 218.5 248.5s-97.826 248.5-218.5 248.5c-23.955 0-43.375-19.42-43.375-43.375s19.42-43.375 43.375-43.375 43.375-19.42 43.375-43.375-19.42-43.375-43.375-43.375h-173.5c-41.421 0-75-33.579-75-75 0-137.243 111.257-248.5 248.5-248.5z" fill="#fea686"/><path d="m106.82 216.68c-10.043-10.043-23.652-14.336-36.751-12.9v89.44c13.099 1.436 26.708-2.857 36.751-12.9 8.787-8.787 8.787-23.033 0-31.82 8.787-8.787 8.787-23.033 0-31.82z" fill="#2d99e9"/><path d="m83.41 248.5c0-23.17-5.838-42.242-13.341-44.72-9.822 1.077-19.358 5.37-26.889 12.9-17.574 17.573-17.574 46.066 0 63.64 7.53 7.53 17.067 11.823 26.889 12.9 7.503-2.478 13.341-21.55 13.341-44.72z" fill="#12b5ff"/><path d="m125.817 80.817v90c12.426 0 22.5-10.074 22.5-22.5 12.426 0 22.5-10.074 22.5-22.5 0-24.853-20.147-45-45-45z" fill="#47bf70"/><path d="m140.817 125.817c0-24.853-6.716-45-15-45-24.853 0-45 20.147-45 45s20.147 45 45 45c8.284 0 15-20.147 15-45z" fill="#5ede8a"/><path d="m280.32 43.18c-8.787-8.787-20.304-13.18-31.82-13.18l8.476 82.124c7.901 2.762 17.029 1.011 23.344-5.304 17.573-17.574 17.573-46.066 0-63.64z" fill="#fff2d4"/><path d="m248.5 30c-11.517 0-23.033 4.393-31.82 13.18-17.574 17.573-17.574 46.066 0 63.64 8.787 8.787 23.033 8.787 31.82 0 2.472 2.472 5.383 4.223 8.476 5.304 3.939-8.11 6.524-21.709 6.524-37.124 0-24.853-6.716-45-15-45z" fill="#fff"/><path d="m453.82 216.68c-8.787-8.787-20.303-13.18-31.82-13.18l.001 90c11.516 0 23.032-4.394 31.819-13.18 17.573-17.574 17.573-46.066 0-63.64z" fill="#db3916"/><path d="m437 248.5c0-24.853-6.716-45-15-45-11.517 0-23.033 4.393-31.82 13.18s-8.787 23.033 0 31.82c-8.787 8.787-8.787 23.033 0 31.82s20.304 13.18 31.821 13.18c8.284-.002 14.999-20.148 14.999-45z" fill="#fc5a37"/><path d="m137.749 412.244 15.93-68.923-152.379 152.379c45.137 11.269 106.622-53.629 136.449-83.456z" fill="#071e61"/><path d="m116.552 391.047 37.127-47.726-68.923 15.93c-29.827 29.827-94.725 91.312-83.456 136.449 22.575-11.294 85.425-74.826 115.252-104.653z" fill="#12398f"/><path d="m189.215 275.965-72.659 115.086 21.213 21.213 99.852-87.894z" fill="#a8cfff"/><path d="m172.63 259.379-87.894 99.852 31.82 31.82 99.851-87.894z" fill="#adeeff"/><path d="m489.097 50.283c10.821-11.77 10.531-30.087-.882-41.499l-304.303 261.878 53.48 53.48z" fill="#ffc85f"/><path d="m446.717 7.903-273.859 251.705 43.286 43.286 272.072-294.11c-11.413-11.412-29.729-11.703-41.499-.881z" fill="#ffe278"/><path d="m247.551 313.088-21.213-21.213-21.213 21.213 21.213 21.213c5.858 5.858 15.355 5.858 21.213 0s5.858-15.355 0-21.213z" fill="#adeeff"/><path d="m226.338 313.088c5.858-5.858 5.858-15.355 0-21.213l-42.426-42.426c-5.858-5.858-15.355-5.858-21.213 0s-5.858 15.355 0 21.213l42.426 42.426c5.858 5.858 15.355 5.858 21.213 0z" fill="#e0f8ff"/></svg>